<?xml version="1.0" standalone="no"?> <!DOCTYPE svg PUBLIC "-//W3C//DTD SVG 20010904//EN" "http://www.w3.org/TR/2001/REC-SVG-20010904/DTD/svg10.dtd"> <svg version="1.0" xmlns="http://www.w3.org/2000/svg" width="1800.000000pt" height="528.000000pt" viewBox="0 0 1800.000000 528.000000" preserveAspectRatio="xMidYMid meet"> <g transform="translate(0.000000,528.000000) scale(0.100000,-0.100000)" fill="#e9962f" stroke="none"> <path d="M4461 3821 c-25 -16 72 -239 115 -268 13 -8 24 -22 24 -31 0 -19 135 -149 206 -199 106 -73 267 -155 357 -183 145 -45 371 -66 383 -36 11 29 -18 97 -75 172 -66 89 -85 110 -193 209 -126 116 -170 151 -238 185 -36 18 -72 39 -80 45 -8 7 -44 22 -80 34 -36 13 -76 29 -90 36 -14 7 -77 19 -140 27 -125 17 -173 19 -189 9z"/> <path d="M12679 3199 c-30 -38 -64 -84 -77 -102 -13 -18 -34 -43 -48 -58 -13 -14 -24 -34 -24 -45 0 -18 55 -64 76 -64 5 0 41 30 79 66 39 35 91 81 118 101 26 21 47 44 47 53 0 13 -78 97 -106 113 -7 4 -34 -23 -65 -64z"/> <path d="M5180 2949 c-81 -7 -149 -24 -251 -62 -79 -30 -211 -100 -242 -128 -84 -79 -158 -156 -163 -171 -3 -10 -9 -18 -14 -18 -4 0 -28 -42 -53 -92 -118 -244 -140 -336 -139 -583 0 -137 5 -182 31 -312 17 -84 42 -179 56 -212 14 -33 25 -65 25 -71 0 -21 80 -178 125 -245 25 -37 45 -71 45 -74 0 -21 260 -240 286 -241 6 0 23 -9 37 -20 28 -22 140 -71 232 -100 98 -32 311 -46 468 -31 161 15 331 51 386 80 11 6 27 11 36 11 9 0 31 6 48 14 83 37 131 56 143 56 20 0 248 133 310 180 52 41 164 159 210 223 53 73 154 281 154 317 0 8 9 51 20 95 15 61 20 112 19 215 -1 261 -38 404 -148 585 -63 105 -81 128 -164 219 -133 145 -309 244 -512 290 -44 10 -102 24 -130 32 -27 7 -84 15 -125 18 -41 3 -89 10 -105 15 -35 12 -476 19 -585 10z m1037 -476 c46 -30 68 -103 47 -157 -6 -16 -34 -23 -34 -8 0 5 -11 14 -24 20 -28 12 -76 91 -76 124 0 48 33 56 87 21z m380 -265 c12 -13 29 -49 39 -81 16 -52 16 -59 2 -73 -34 -34 -92 38 -105 131 -5 43 -5 45 19 45 13 0 34 -10 45 -22z m-439 -147 c52 -57 72 -90 72 -120 0 -26 -4 -31 -22 -31 -30 1 -69 34 -102 87 -29 47 -32 63 -14 81 19 19 37 14 66 -17z m-302 -234 c23 -20 27 -31 28 -82 2 -85 -21 -86 -68 -5 -46 78 -47 110 -5 110 10 0 30 -10 45 -23z m879 -62 c21 -21 35 -44 35 -59 0 -14 5 -28 10 -31 15 -10 12 -55 -5 -61 -64 -25 -130 89 -99 170 9 24 21 20 59 -19z m-548 -217 c18 -24 43 -103 43 -135 0 -22 -6 -36 -19 -43 -32 -16 -37 -13 -56 38 -10 26 -26 56 -36 68 -23 25 -23 33 -3 62 17 24 56 29 71 10z m-424 -107 c25 -25 48 -117 37 -147 -13 -34 -34 -30 -74 17 -40 47 -66 136 -44 151 18 11 59 1 81 -21z m306 -358 c6 -13 11 -48 11 -78 0 -52 -1 -55 -25 -55 -21 0 -30 10 -50 54 -27 59 -33 122 -12 129 18 7 64 -23 76 -50z"/> <path d="M10947 2772 l-97 -3 2 -952 3 -952 294 0 295 0 -3 110 c-1 61 -4 112 -6 114 -6 5 -245 2 -298 -4 -83 -10 -78 -34 -78 369 0 197 2 361 6 364 7 7 315 3 327 -4 5 -3 17 -2 28 1 17 6 20 15 20 75 l0 69 -37 6 c-21 3 -63 10 -93 15 -30 6 -82 14 -115 20 -90 15 -94 22 -85 165 4 66 4 187 -1 270 -4 94 -4 154 2 162 7 8 53 10 163 6 95 -4 155 -2 159 4 9 14 12 151 4 160 -8 7 -311 10 -490 5z"/> <path d="M7624 2762 c-10 -6 -28 -516 -24 -657 1 -22 3 -317 6 -655 2 -338 7 -621 9 -628 3 -9 32 -12 112 -10 l108 3 -2 30 c0 17 -6 154 -12 305 -6 151 -15 311 -21 355 -17 135 -20 334 -5 349 8 8 76 17 196 25 101 7 189 17 195 22 7 6 12 40 12 84 0 59 -3 75 -16 80 -9 3 -85 5 -169 4 -105 -1 -157 2 -167 10 -10 8 -14 37 -15 99 0 48 -3 137 -7 197 -7 134 -1 148 72 150 103 3 263 18 275 26 17 10 21 133 5 155 -13 18 -57 23 -341 44 -82 6 -161 13 -175 15 -14 3 -30 2 -36 -3z"/> <path d="M8528 2756 c-43 -6 -83 -17 -90 -24 -9 -9 -12 -225 -12 -939 l-1 -928 65 0 65 0 7 45 c3 25 12 104 18 175 6 72 18 198 25 280 8 83 15 182 15 222 0 79 10 93 65 93 48 0 65 -16 65 -65 0 -24 8 -81 19 -127 26 -116 42 -202 52 -278 8 -59 30 -201 45 -290 10 -55 18 -60 104 -60 76 0 79 1 108 35 26 29 29 39 22 62 -13 41 -49 174 -81 293 -15 58 -33 119 -38 135 -5 17 -20 75 -31 130 -12 55 -29 124 -37 152 -16 52 -15 53 10 90 15 21 41 55 59 76 33 39 33 39 31 140 -1 56 -7 181 -13 277 -7 96 -15 234 -19 306 -9 200 -26 215 -243 213 -73 -1 -168 -6 -210 -13z m269 -151 c22 -15 22 -16 16 -348 -3 -182 -9 -336 -14 -341 -14 -15 -166 -19 -175 -5 -4 7 -8 55 -10 108 -1 53 -5 202 -8 331 -4 129 -3 240 1 247 5 7 38 14 73 16 36 2 72 4 80 5 9 1 25 -5 37 -13z"/> <path d="M10075 2758 c-2 -7 -11 -49 -20 -93 -20 -99 -21 -98 117 -129 43 -10 61 -34 53 -73 -3 -19 -8 -103 -10 -186 -19 -710 -27 -1012 -34 -1192 -4 -116 -6 -213 -4 -217 5 -10 214 -10 229 0 16 10 19 1586 3 1625 -10 24 -9 31 5 45 13 14 36 17 119 17 l102 0 -2 78 c-1 43 -7 85 -14 93 -7 9 -32 14 -73 14 -58 0 -269 13 -404 25 -46 4 -64 2 -67 -7z"/> <path d="M11835 2758 c-47 -5 -86 -15 -95 -24 -13 -13 -15 -130 -16 -927 0 -502 1 -920 3 -929 4 -15 16 -18 68 -18 59 0 65 2 69 23 6 28 14 149 21 302 3 66 8 137 10 157 3 20 8 97 11 170 4 73 11 141 16 151 7 15 20 17 65 15 67 -4 64 2 88 -173 19 -142 62 -402 81 -485 8 -36 14 -81 14 -101 0 -50 14 -59 96 -59 88 0 101 4 120 42 14 26 14 34 0 76 -18 54 -71 256 -92 351 -8 35 -17 67 -20 72 -11 19 -67 245 -71 290 -4 42 -1 52 40 105 73 98 71 84 63 318 -8 243 -13 324 -25 421 -5 39 -9 89 -9 112 1 52 -20 85 -65 107 -40 18 -228 21 -372 4z m261 -152 c18 -14 19 -27 15 -353 -2 -186 -5 -340 -8 -343 -2 -3 -37 -7 -76 -11 -71 -5 -116 4 -118 25 -1 6 -3 139 -4 296 -1 157 -5 301 -8 320 -11 53 2 64 85 71 40 3 78 6 84 7 5 1 19 -4 30 -12z"/> <path d="M12592 2753 c-4 -10 -7 -439 -7 -953 l0 -935 115 0 115 0 0 145 c0 80 -6 363 -13 630 -17 662 -21 774 -27 855 -11 135 -13 160 -14 218 l-1 57 -80 0 c-67 0 -82 -3 -88 -17z"/> <path d="M13126 2753 c-6 -20 -26 -258 -32 -378 -13 -288 -26 -514 -34 -600 -6 -55 -17 -217 -25 -360 -8 -143 -17 -276 -20 -295 -2 -19 -6 -84 -7 -145 l-3 -110 90 0 90 0 -1 30 c-1 17 4 64 12 105 7 41 18 154 24 250 13 216 19 236 69 250 21 5 49 18 62 29 31 23 62 33 82 25 18 -7 18 -8 41 -209 20 -172 35 -286 47 -345 4 -25 12 -65 16 -90 l8 -45 60 0 60 0 0 75 c0 91 -31 604 -46 750 -5 58 -14 222 -20 365 -5 143 -12 305 -14 360 -2 55 -9 134 -15 175 -6 41 -13 99 -17 128 l-6 52 -208 0 c-189 0 -208 -2 -213 -17z m285 -148 c-2 -16 -6 -231 -10 -477 -7 -507 -3 -483 -81 -470 l-45 8 1 474 1 475 24 13 c13 7 44 11 69 10 44 -3 45 -4 41 -33z"/> <path d="M9375 2743 c-27 -3 -55 -8 -61 -14 -7 -6 -14 -80 -18 -207 -13 -386 -14 -418 -20 -497 -3 -44 -8 -199 -12 -345 -3 -146 -9 -326 -14 -400 -9 -149 -3 -460 9 -473 11 -11 597 -4 608 6 4 5 8 424 8 932 0 822 -2 926 -16 940 -10 10 -43 17 -96 22 l-80 6 -7 -164 c-4 -90 -9 -458 -11 -818 -2 -360 -8 -657 -12 -661 -4 -4 -39 -12 -78 -18 -58 -8 -74 -7 -94 5 -18 12 -22 21 -18 43 3 15 9 155 12 311 3 156 10 336 15 399 6 63 12 298 13 522 3 344 2 408 -10 413 -15 5 -23 5 -118 -2z"/> </g> </svg>